E la nave va (1983)

n July 1914 a luxury liner leaves Italy with the ashes of the famous opera singer Tetua. The boat is filled with her friends, opera singers, actors and all kinds of exotic people. Life is sweet the first days, but on the third day the captain has to save a a large number of Serbian refugees from the sea, refugees who had escaped the first tremors of WWI. Written by Mattias Thuresson <mattias.thuresson@mbox300.swipnet.se>

Original audio | english subs

General
Complete name                            :And.the.Ship.Sails.On.1983.720p.BluRay.x264-HiDt.mkv
Format                                   : Matroska
Format version                           : Version 2
File size                                : 7.30 GiB
Duration                                 : 2h 7mn
Overall bit rate                         : 8 205 Kbps
Encoded date                             : UTC 2012-02-11 22:55:22
Writing application                      : mkvmerge v3.4.0 ('Rapunzel') built on May 15 2010 09:38:20
Writing library                          : libebml v0.8.0 + libmatroska v0.9.0

Video
ID                                       : 1
Format                                   : AVC
Format/Info                              : Advanced Video Codec
Format profile                           : High@L4.1
Format settings, CABAC                   : Yes
Format settings, ReFrames                : 9 frames
Codec ID                                 : V_MPEG4/ISO/AVC
Duration                                 : 2h 7mn
Bit rate                                 : 7 757 Kbps
Width                                    : 1 280 pixels
Height                                   : 692 pixels
Display aspect ratio                     : 1.850
Frame rate                               : 24.000 fps
Color space                              : YUV
Chroma subsampling                       : 4:2:0
Bit depth                                : 8 bits
Scan type                                : Progressive
Bits/(Pixel*Frame)                       : 0.365
Stream size                              : 6.75 GiB (93%)
Writing library                          : x264 core 120 r2164 da19765
Language                                 : Italian
Default                                  : No
Forced                                   : No

Audio
ID                                       : 2
Format                                   : AC-3
Format/Info                              : Audio Coding 3
Mode extension                           : CM (complete main)
Codec ID                                 : A_AC3
Duration                                 : 2h 7mn
Bit rate mode                            : Constant
Bit rate                                 : 448 Kbps
Channel(s)                               : 1 channel
Channel positions                        : Front: C
Sampling rate                            : 48.0 KHz
Bit depth                                : 16 bits
Compression mode                         : Lossy
Stream size                              : 408 MiB (5%)
Language                                 : Italian
Default                                  : Yes
Forced                                   : No